# xmcd CD database file
#
# Track frame offsets:
#	150
#	32589
#	56772
#	91512
#	116790
#	156101
#	188166
#
# Disc length: 2661 seconds
#
# Revision: 1
# Processed by: cddbd v1.5.2PL0 Copyright (c) Steve Scherf et al.
# Submitted via: CDex 1.51
#
DISCID=500a6307
DTITLE=Trio Gitan - 20 ans de Trio Gitan - Live in Marciac  (Boulou Ferré, Christian Escoudé, Babik Reinhardt)
DYEAR=1987
DGENRE=Jazz
TTITLE0=Mosaïque
TTITLE1=Chez Boucharingue
TTITLE2=Parker 51
TTITLE3=Old Fashioned Charm
TTITLE4=One more time
TTITLE5=Coltrane memories
TTITLE6=Jitterbug Waltz
EXTD=YEAR: 1987
EXTT0=
EXTT1=
EXTT2=
EXTT3=
EXTT4=
EXTT5=
EXTT6=
PLAYORDER=
